<svg xmlns="http://www.w3.org/2000/svg" width="39" height="39" fill="none" viewBox="0 0 39 39"><g clip-path="url(#feiern-dish-clip)"><path fill="#E87D07" d="M37.857 20.948h-.076v-1.604c0-4.864-1.907-9.45-5.369-12.912-3.19-3.19-7.335-5.058-11.772-5.332a1.142 1.142 0 0 0-2.28 0c-4.437.274-8.582 2.142-11.772 5.332-3.462 3.463-5.37 8.048-5.37 12.912v1.604h-.075C.512 20.948 0 21.459 0 22.09v2.286a3.432 3.432 0 0 0 3.428 3.427h12.644v4.905a8.605 8.605 0 0 0-4.567 4.728A1.142 1.142 0 0 0 12.567 39h13.866a1.142 1.142 0 0 0 1.062-1.564 8.605 8.605 0 0 0-4.567-4.728v-4.905h12.644A3.432 3.432 0 0 0 39 24.376V22.09c0-.63-.512-1.142-1.143-1.142ZM24.09 11.807c-.307 0-.595-.124-.808-.338a4.017 4.017 0 0 0 .238-1.793c.143-.084.333-.155.57-.155a1.144 1.144 0 0 1 0 2.286Zm-4.589 0a1.754 1.754 0 0 1-1.752-1.752c0-.966.786-1.752 1.752-1.752s1.752.786 1.752 1.752-.786 1.752-1.752 1.752Zm-3.78-.338a1.144 1.144 0 0 1-1.951-.805c0-.63.512-1.143 1.142-1.143.203 0 .399.056.57.156a4.018 4.018 0 0 0 .238 1.792Zm12.768 2.623v2.285H10.512v-2.285h17.976Zm-17.976 4.57h17.976v2.285H10.512v-2.285Zm-7.008.682c0-8.82 7.176-15.996 15.996-15.996s15.996 7.176 15.996 15.996v1.603h-4.723V12.95c0-.63-.511-1.142-1.142-1.142h-2.31a3.432 3.432 0 0 0-3.231-4.57c-.496 0-.983.108-1.428.312a4.031 4.031 0 0 0-6.324 0 3.415 3.415 0 0 0-1.427-.313 3.432 3.432 0 0 0-3.231 4.57H9.37c-.632 0-1.143.512-1.143 1.143v7.998H3.504v-1.603Zm17.928 15.238a6.4 6.4 0 0 1 3.036 2.133h-9.936a6.4 6.4 0 0 1 3.035-2.133c.471-.153.79-.591.79-1.087v-5.692h2.286v5.692c0 .496.319.934.79 1.087Zm15.283-10.206c0 .63-.513 1.142-1.143 1.142H3.428c-.63 0-1.143-.512-1.143-1.142v-1.143h34.43v1.143Z"/></g><defs><clipPath id="feiern-dish-clip"><path fill="#fff" d="M0 0h39v39H0z"/></clipPath></defs></svg>
