<svg xmlns="http://www.w3.org/2000/svg" width="39" height="39" fill="none" viewBox="0 0 39 39"><g clip-path="url(#feiern-cake-clip)"><path fill="#E87D07" d="M34.4 8.877c-2.422-1.145-5.723-1.994-9.372-2.417C24.43 3.645 22.368 0 19.5 0c-2.869 0-4.931 3.645-5.528 6.46-3.649.423-6.95 1.272-9.371 2.417C.798 10.674 0 12.734 0 14.147v18.357c0 2.672 2.724 4.962 7.67 6.448.23.07.49.066.735-.027l.015-.005 11.08-4.403 11.08 4.402c.25.1.54.11.81.012 4.908-1.487 7.61-3.768 7.61-6.427V14.146c0-1.412-.798-3.472-4.6-5.27ZM19.5 2.285c1.687 0 3.428 3.82 3.428 5.79 0 1.036-.234 1.166-2.815 1.145a59.848 59.848 0 0 0-1.226 0c-2.521.02-2.815-.082-2.815-1.146 0-2.21 1.86-5.789 3.428-5.789ZM6.855 36.265c-2.82-1.072-4.57-2.486-4.57-3.761v-7.591c1.13.868 2.665 1.636 4.57 2.276v9.076Zm0-11.504c-2.82-1.073-4.57-2.485-4.57-3.76v-2.944c1.13.868 2.665 1.637 4.57 2.276v4.428Zm11.502 7.75-9.216 3.663v-6.758l9.216-3.662v6.758Zm0-9.216-9.216 3.662v-6.681l9.216-3.663v6.682Zm11.508 12.878-9.222-3.661v-6.758l9.224 3.662-.002 6.757Zm.002-9.216-9.224-3.662v-6.682l9.224 3.663v6.681Zm6.848 5.547c0 1.274-1.75 2.687-4.57 3.76v-9.075c1.905-.64 3.44-1.408 4.57-2.276v7.59Zm0-11.502c0 1.274-1.75 2.686-4.57 3.759v-4.428c1.905-.64 3.44-1.408 4.57-2.276v2.945Zm-5.669-2.714-11.101-4.41-.001-.001c-.36-.132-.526-.114-.888 0h-.001L7.954 18.288c-3.457-1.102-5.669-2.71-5.669-4.142 0-1.993 4.294-4.463 11.552-5.369.106.718.382 1.303.826 1.744 1.018 1.01 2.583.99 4.242.977.945-.008 1.178.003 1.743.003 1.449 0 2.785-.083 3.689-.98.444-.44.72-1.026.826-1.744 7.258.906 11.552 3.376 11.552 5.37 0 1.432-2.212 3.04-5.669 4.141Z"/></g><defs><clipPath id="feiern-cake-clip"><path fill="#fff" d="M0 0h39v39H0z"/></clipPath></defs></svg>
