<svg xmlns="http://www.w3.org/2000/svg" width="39" height="39" fill="none" viewBox="0 0 39 39"><path fill="#E87D07" d="M1.219 20.643a4.57 4.57 0 0 0 2.285 3.955v13.26c0 .63.511 1.142 1.142 1.142h29.707c.631 0 1.143-.512 1.143-1.143V24.598a4.572 4.572 0 0 0 2.285-3.955c0-2.52-2.05-4.57-4.57-4.57H22.928v-5.79c0-.63-.512-1.142-1.143-1.142h-4.57c-.631 0-1.143.511-1.143 1.142v5.79H5.79c-2.52 0-4.57 2.05-4.57 4.57Zm4.57 16.072v-4.647h27.422v4.647H5.789Zm27.422-6.932H5.789v-4.57c1.364 0 2.59-.6 3.428-1.55a4.561 4.561 0 0 0 6.855 0 4.56 4.56 0 0 0 6.856 0 4.561 4.561 0 0 0 6.855 0 4.561 4.561 0 0 0 3.428 1.55v4.57ZM18.357 11.426h2.286v4.646h-2.286v-4.646ZM5.79 18.357h27.422a2.288 2.288 0 0 1 2.285 2.286 2.288 2.288 0 0 1-2.285 2.285 2.288 2.288 0 0 1-2.285-2.285 1.143 1.143 0 0 0-2.285 0 2.288 2.288 0 0 1-2.285 2.285 2.288 2.288 0 0 1-2.286-2.285 1.143 1.143 0 0 0-2.285 0 2.288 2.288 0 0 1-2.285 2.285 2.288 2.288 0 0 1-2.285-2.285 1.143 1.143 0 1 0-2.285 0 2.288 2.288 0 0 1-2.285 2.285 2.288 2.288 0 0 1-2.286-2.285 1.143 1.143 0 0 0-2.285 0 2.288 2.288 0 0 1-2.285 2.285 2.288 2.288 0 0 1-2.285-2.285 2.288 2.288 0 0 1 2.285-2.286ZM22.928 5.713C22.928 4.253 21.823 0 19.5 0c-2.292 0-3.428 4.206-3.428 5.713A3.432 3.432 0 0 0 19.5 9.14a3.432 3.432 0 0 0 3.428-3.428ZM19.5 6.855c-.63 0-1.143-.512-1.143-1.142 0-.813.554-2.614 1.143-3.317.595.71 1.143 2.52 1.143 3.317 0 .63-.513 1.142-1.143 1.142Z"/></svg>
