<svg xmlns="http://www.w3.org/2000/svg" viewBox="0 0 1600 1600" fill="#000000">
<g transform="translate(0.000000,1600.000000) scale(0.100000,-0.100000)"
fill="#000000" stroke="none">
<path d="M7386 15029 c-66 -5 -165 -18 -222 -29 -56 -11 -171 -26 -256 -35
-84 -8 -209 -29 -278 -45 -69 -16 -168 -36 -220 -44 -52 -9 -129 -27 -170 -41
-41 -14 -106 -30 -145 -36 -38 -6 -96 -22 -127 -35 -32 -13 -97 -33 -145 -44
-48 -12 -101 -30 -119 -40 -17 -11 -64 -27 -105 -36 -41 -9 -96 -29 -124 -44
-27 -15 -75 -33 -105 -40 -30 -7 -78 -25 -105 -41 -28 -15 -72 -33 -99 -39
-27 -6 -67 -24 -90 -40 -22 -15 -57 -32 -76 -35 -39 -8 -105 -39 -114 -54 -4
-5 -35 -19 -70 -31 -35 -11 -71 -29 -81 -40 -10 -11 -46 -29 -80 -40 -35 -12
-69 -28 -77 -37 -7 -9 -37 -27 -67 -40 -30 -14 -67 -35 -83 -48 -15 -13 -44
-29 -64 -35 -21 -7 -57 -28 -81 -46 -25 -19 -51 -34 -58 -34 -8 0 -29 -13 -47
-29 -18 -15 -56 -40 -85 -54 -28 -15 -54 -31 -58 -37 -3 -6 -25 -20 -48 -31
-23 -12 -55 -33 -72 -48 -16 -15 -50 -40 -75 -55 -81 -49 -158 -104 -243 -176
-23 -20 -55 -44 -72 -55 -52 -32 -213 -167 -375 -313 -227 -205 -658 -651
-760 -787 -14 -19 -45 -59 -70 -91 -25 -31 -61 -78 -80 -104 -19 -26 -55 -73
-80 -105 -25 -31 -58 -79 -75 -105 -16 -26 -40 -60 -53 -76 -25 -31 -71 -101
-112 -168 -14 -23 -37 -58 -52 -77 -16 -20 -28 -40 -28 -45 0 -5 -18 -35 -40
-68 -22 -32 -40 -64 -40 -71 0 -7 -16 -32 -35 -56 -19 -24 -40 -60 -46 -79 -6
-19 -22 -49 -35 -67 -13 -17 -33 -54 -44 -83 -11 -29 -31 -66 -44 -83 -13 -18
-29 -50 -36 -72 -7 -22 -23 -56 -36 -75 -13 -19 -32 -61 -43 -91 -10 -31 -30
-74 -44 -95 -14 -22 -33 -65 -42 -98 -9 -32 -27 -75 -40 -95 -13 -20 -29 -58
-35 -84 -6 -27 -23 -74 -39 -105 -16 -31 -34 -84 -41 -117 -7 -33 -25 -85 -41
-116 -15 -31 -33 -87 -40 -125 -6 -38 -22 -93 -35 -123 -13 -29 -33 -99 -44
-155 -11 -55 -31 -132 -45 -171 -13 -38 -31 -123 -40 -188 -9 -65 -20 -130
-26 -145 -22 -57 -39 -153 -49 -273 -6 -68 -19 -178 -30 -244 -37 -235 -44
-361 -43 -775 0 -411 6 -519 43 -760 11 -69 24 -181 30 -250 6 -70 23 -175 39
-240 16 -63 34 -155 41 -205 6 -49 22 -119 35 -157 13 -37 33 -115 45 -174 11
-59 30 -124 41 -145 11 -22 28 -79 38 -127 10 -48 29 -109 44 -137 14 -27 31
-77 37 -110 7 -33 24 -82 39 -110 15 -27 33 -72 40 -99 7 -27 25 -74 41 -105
16 -31 34 -76 40 -101 6 -25 25 -66 41 -92 17 -26 35 -64 41 -85 5 -21 22 -58
38 -83 15 -25 33 -63 40 -85 7 -21 26 -57 42 -79 15 -21 33 -56 38 -77 6 -21
21 -51 35 -67 13 -15 32 -48 41 -73 10 -24 28 -57 42 -73 13 -17 34 -53 47
-82 12 -28 28 -55 34 -58 6 -4 25 -34 41 -66 16 -32 34 -61 40 -65 6 -3 20
-25 32 -48 11 -23 36 -60 54 -81 19 -22 34 -45 34 -51 0 -6 13 -26 28 -45 16
-19 41 -56 56 -82 15 -27 31 -48 35 -48 3 0 21 -21 39 -47 38 -55 98 -136 162
-217 25 -32 58 -74 73 -94 16 -20 61 -72 100 -116 40 -43 101 -111 137 -150
256 -280 724 -715 885 -822 22 -15 57 -41 77 -58 76 -64 144 -114 238 -175 25
-16 61 -41 80 -56 73 -54 136 -95 175 -113 22 -11 47 -27 55 -36 7 -10 37 -29
64 -43 28 -14 65 -36 82 -49 17 -13 46 -29 65 -36 18 -6 52 -26 75 -43 23 -18
55 -35 71 -39 15 -4 44 -20 63 -35 19 -15 56 -35 82 -44 26 -8 62 -27 80 -40
18 -13 54 -31 81 -40 26 -9 59 -25 74 -37 14 -11 55 -29 90 -40 36 -11 76 -29
90 -40 15 -11 51 -28 82 -36 31 -9 79 -29 106 -44 28 -15 73 -33 100 -39 28
-7 75 -25 106 -41 31 -16 86 -36 123 -44 36 -9 88 -27 114 -40 26 -13 74 -29
107 -36 33 -6 92 -24 130 -40 39 -15 104 -33 145 -40 41 -7 104 -23 140 -37
36 -13 110 -31 165 -39 55 -9 150 -29 210 -44 61 -16 164 -33 230 -40 66 -6
181 -23 254 -36 219 -40 367 -48 936 -48 566 0 707 8 935 48 74 13 189 30 255
36 66 7 170 25 232 41 62 16 147 34 190 40 43 6 119 24 168 39 50 16 119 34
155 40 36 7 99 25 140 41 41 16 100 33 130 39 30 6 83 23 117 39 34 16 88 35
120 41 32 7 81 25 108 40 28 15 75 33 105 40 30 7 78 25 105 40 28 16 70 33
95 40 25 6 65 24 90 40 25 16 65 34 90 40 25 7 70 27 100 46 31 19 62 34 71
34 8 0 37 14 65 32 27 17 71 39 98 49 27 10 59 27 70 38 12 11 43 29 70 41 27
11 61 31 77 44 16 14 45 30 66 37 21 6 58 27 82 46 24 18 50 33 57 33 7 0 29
14 48 30 18 17 54 39 79 50 24 11 50 27 58 36 7 8 33 26 58 39 25 12 55 33 66
45 11 12 41 33 66 45 25 13 51 30 58 39 7 8 33 27 57 41 24 14 44 30 44 35 0
5 20 21 44 35 23 14 52 35 62 46 10 12 31 27 46 35 28 15 74 52 246 201 155
134 356 321 457 424 123 127 460 507 527 595 74 97 168 226 204 279 15 22 40
55 55 73 16 18 29 39 29 47 0 8 15 32 34 52 18 21 43 57 55 80 11 23 25 45 31
48 6 4 24 33 40 65 16 32 34 62 40 65 6 4 24 34 41 68 16 33 38 70 49 82 11
11 25 36 31 55 7 19 23 50 37 69 14 18 33 56 44 84 11 28 30 64 43 79 14 16
29 46 34 66 6 21 24 59 41 85 16 26 35 67 41 92 6 24 22 59 35 77 14 18 32 58
41 88 8 30 28 78 43 105 16 28 34 73 41 100 6 28 24 73 39 100 16 28 33 77 40
110 6 33 24 85 40 116 16 30 34 84 40 120 6 35 24 96 39 134 16 39 34 101 40
138 6 37 25 109 41 160 16 51 34 128 40 172 6 44 24 132 40 197 16 64 34 169
40 235 11 120 17 162 44 313 28 162 39 463 32 890 -6 397 -13 494 -50 705 -8
50 -20 143 -26 208 -6 66 -24 171 -40 235 -16 65 -34 154 -40 198 -6 45 -24
122 -40 172 -16 50 -34 121 -41 159 -6 37 -24 100 -40 139 -15 39 -33 99 -39
134 -6 35 -24 89 -40 119 -15 31 -33 83 -40 116 -6 33 -24 83 -39 110 -15 28
-33 72 -40 99 -7 27 -25 74 -41 105 -16 31 -33 75 -39 97 -6 23 -23 59 -38 80
-14 22 -34 64 -43 96 -10 31 -29 71 -42 90 -14 18 -32 54 -41 80 -9 26 -27 62
-40 80 -14 18 -28 44 -32 58 -4 14 -25 55 -46 91 -21 36 -39 70 -39 76 0 6
-15 31 -33 55 -18 24 -39 59 -47 78 -7 19 -24 48 -37 64 -13 16 -35 50 -49 75
-14 25 -35 60 -47 77 -12 18 -30 45 -40 60 -9 16 -27 43 -40 60 -12 18 -30 45
-40 60 -46 75 -95 143 -178 247 -14 17 -40 52 -57 77 -18 25 -49 66 -70 92
-20 25 -50 64 -67 85 -16 21 -45 55 -65 77 -19 21 -48 53 -65 71 -16 18 -64
70 -105 116 -154 173 -440 451 -665 646 -22 19 -58 50 -80 69 -79 69 -137 115
-163 128 -15 8 -36 24 -46 35 -11 12 -37 32 -58 43 -21 12 -38 25 -38 30 0 7
-81 64 -174 123 -18 11 -50 35 -71 53 -22 17 -45 32 -52 32 -7 0 -28 14 -47
30 -18 17 -54 39 -78 50 -24 10 -53 29 -63 40 -10 11 -39 30 -64 41 -25 11
-55 28 -66 39 -11 10 -42 28 -69 40 -27 11 -61 31 -77 44 -16 14 -45 30 -66
36 -21 7 -54 24 -73 39 -19 15 -56 35 -82 44 -26 8 -62 27 -80 40 -18 14 -51
30 -73 37 -22 7 -60 25 -85 40 -25 16 -65 34 -90 40 -25 6 -65 24 -90 40 -25
16 -65 34 -90 40 -25 7 -67 24 -95 40 -27 15 -75 33 -105 40 -30 7 -77 25
-105 40 -27 15 -82 35 -122 43 -40 9 -94 27 -120 40 -26 13 -83 32 -126 41
-43 10 -98 26 -123 37 -24 11 -79 27 -122 35 -42 8 -120 28 -172 44 -52 16
-131 34 -175 40 -44 6 -134 24 -200 40 -66 16 -190 36 -275 45 -85 8 -200 24
-255 35 -55 11 -172 24 -260 30 -187 12 -1026 11 -1199 -1z m-1361 -770 c52
-46 48 -76 -17 -125 -61 -46 -82 -82 -73 -125 10 -43 44 -61 121 -63 52 -2 70
-6 80 -21 29 -40 13 -83 -46 -120 -50 -32 -57 -60 -32 -127 10 -29 23 -71 26
-92 4 -22 20 -65 35 -95 16 -31 36 -89 45 -130 9 -41 25 -88 36 -106 11 -17
27 -63 35 -101 9 -38 31 -101 50 -139 39 -79 38 -108 -4 -129 -34 -18 -113
-30 -140 -21 -27 8 -49 50 -61 117 -6 28 -23 79 -39 112 -16 34 -35 88 -41
121 -7 33 -23 80 -36 104 -13 24 -31 74 -39 110 -8 36 -28 95 -44 131 -16 36
-34 78 -40 93 -8 20 -27 35 -64 52 -29 12 -59 30 -66 39 -24 28 -16 65 19 95
36 29 36 40 11 180 -20 105 22 211 88 226 14 3 40 14 56 25 46 30 97 26 140
-11z m2075 -34 c19 -17 21 -27 16 -70 -13 -114 -27 -741 -17 -767 13 -33 52
-60 88 -60 19 0 37 11 60 37 33 38 33 39 33 144 0 58 5 147 10 196 5 50 10
181 11 293 1 187 2 205 20 223 34 34 158 21 174 -19 6 -15 -12 -905 -19 -975
-5 -46 -40 -87 -74 -87 -14 0 -40 16 -64 40 -23 22 -49 40 -58 40 -9 0 -44
-14 -78 -31 -94 -46 -117 -47 -199 -5 -61 30 -73 41 -85 73 -10 30 -12 132
-10 493 4 537 -3 504 102 498 50 -3 74 -9 90 -23z m-588 -49 c46 -34 71 -59
78 -81 31 -93 60 -244 60 -309 0 -97 -13 -109 -145 -136 -55 -11 -117 -20
-137 -20 -25 0 -45 -7 -59 -21 -19 -19 -21 -29 -16 -95 4 -49 14 -93 32 -131
34 -76 51 -93 91 -93 44 0 79 43 94 116 10 45 17 59 43 75 68 41 114 16 124
-69 13 -116 -16 -177 -116 -242 -56 -35 -157 -56 -226 -45 -52 7 -113 57 -168
137 -31 46 -40 71 -52 145 -8 49 -21 116 -29 149 -8 32 -20 119 -27 192 -15
160 -5 230 46 332 33 66 64 93 165 142 8 4 51 6 95 5 78 -2 81 -3 147 -51z
m2864 0 c48 -43 48 -43 29 -122 -10 -43 -31 -107 -46 -140 -15 -34 -33 -90
-39 -125 -6 -35 -24 -92 -40 -126 -15 -34 -34 -88 -40 -120 -7 -32 -25 -87
-40 -123 -16 -36 -34 -94 -41 -130 -6 -36 -23 -87 -37 -115 -14 -27 -33 -87
-43 -131 -23 -108 -79 -219 -114 -228 -32 -8 -51 2 -98 54 -41 46 -30 45 -157
24 -29 -5 -45 1 -90 31 -30 21 -63 45 -73 54 -49 47 -43 298 9 411 15 30 34
92 45 137 10 45 29 103 43 130 14 26 26 55 26 63 3 71 88 183 174 229 79 42
106 39 202 -24 37 -25 71 -45 75 -45 15 0 29 30 43 95 20 93 79 227 106 241
30 16 50 9 106 -40z m-1426 4 c4 0 27 -16 50 -35 23 -19 50 -35 60 -35 10 0
42 11 72 25 80 37 136 27 201 -34 27 -25 56 -59 65 -76 21 -39 20 -172 -3
-238 -9 -26 -25 -116 -35 -200 -10 -84 -30 -197 -44 -252 -15 -55 -29 -136
-33 -179 -8 -104 -23 -121 -100 -113 -97 10 -128 50 -103 136 20 73 29 126 40
235 5 55 23 155 40 221 17 68 32 165 36 223 8 119 -2 142 -63 142 -60 0 -91
-24 -107 -83 -33 -124 -56 -239 -67 -342 -6 -60 -24 -164 -40 -230 -16 -66
-29 -132 -29 -148 0 -30 -16 -67 -34 -80 -14 -10 -102 1 -143 19 -37 15 -41
35 -19 99 8 22 17 76 21 120 8 99 30 227 55 320 10 39 23 122 30 185 11 107
26 189 51 268 11 33 54 65 77 57 8 -3 17 -5 22 -5z m-2209 -85 c44 -23 54 -34
81 -93 35 -75 40 -139 14 -189 -17 -34 -34 -43 -76 -43 -34 0 -43 10 -70 82
-22 60 -32 71 -67 82 -31 10 -63 -25 -63 -68 0 -19 13 -71 30 -115 16 -45 38
-134 49 -198 11 -65 31 -152 45 -193 25 -78 49 -205 50 -274 1 -36 -4 -43 -43
-73 -34 -27 -52 -33 -80 -31 -36 3 -36 3 -73 113 -21 61 -47 162 -58 225 -10
63 -28 142 -40 175 -11 33 -30 111 -41 174 -11 63 -29 139 -40 170 -33 92 -38
120 -28 156 18 62 88 85 139 45 36 -28 55 -25 86 16 28 37 73 62 112 63 12 1
45 -10 73 -24z m-1210 -391 c38 -24 79 -69 79 -88 0 -6 14 -31 30 -55 17 -24
30 -52 30 -62 0 -38 -91 -117 -117 -101 -6 4 -32 35 -57 69 -54 74 -89 89
-119 52 -24 -30 -18 -76 18 -123 15 -19 35 -62 45 -95 10 -33 27 -72 38 -86
12 -14 28 -50 38 -78 9 -29 29 -72 44 -97 16 -25 34 -65 40 -90 6 -25 22 -61
35 -80 30 -45 79 -175 72 -194 -8 -20 -134 -86 -152 -79 -9 3 -28 29 -42 57
-14 28 -33 62 -42 76 -10 14 -23 45 -30 70 -7 25 -26 65 -41 90 -16 25 -33 63
-39 85 -6 22 -24 61 -40 86 -16 25 -36 71 -45 101 -8 30 -25 67 -37 82 -12 15
-28 48 -35 74 -8 26 -26 64 -40 85 -28 43 -54 109 -54 138 0 34 36 59 84 59
61 0 83 10 143 64 58 53 109 78 138 69 11 -3 36 -16 56 -29z m5332 -93 c47
-13 80 -30 111 -57 53 -47 72 -82 80 -149 9 -62 -17 -200 -43 -236 -10 -14
-33 -52 -49 -86 -35 -69 -82 -113 -119 -113 -15 0 -41 11 -59 25 -19 14 -52
32 -75 40 -22 8 -53 24 -69 35 -44 31 -65 26 -108 -29 -43 -55 -79 -171 -68
-224 8 -40 43 -77 72 -77 28 0 76 39 104 85 29 47 63 47 118 -1 64 -55 60 -84
-25 -166 -110 -106 -187 -114 -327 -36 -72 39 -81 48 -112 107 -41 77 -45 146
-13 231 11 30 27 82 35 115 9 33 29 80 45 104 16 25 34 63 40 84 6 22 26 62
45 89 19 28 34 56 34 63 0 19 127 163 160 180 71 37 133 41 223 16z m850 -66
c57 -54 61 -83 17 -127 -17 -16 -38 -44 -47 -62 -8 -17 -31 -48 -49 -69 -26
-28 -34 -46 -34 -76 0 -38 0 -38 76 -66 84 -31 135 -69 154 -115 18 -43 8
-162 -16 -196 -11 -14 -35 -52 -54 -83 -19 -32 -44 -72 -55 -90 -11 -18 -30
-47 -42 -65 -13 -17 -31 -44 -40 -60 -10 -16 -33 -49 -51 -75 -18 -25 -39 -60
-47 -78 -8 -18 -28 -47 -44 -65 -15 -18 -34 -44 -41 -58 -7 -14 -33 -55 -57
-92 -49 -74 -74 -85 -108 -48 -10 12 -33 30 -51 40 -17 11 -34 29 -37 39 -7
26 17 89 46 120 14 14 36 49 50 77 14 27 33 56 42 64 9 8 27 35 40 60 13 25
31 53 41 60 9 8 25 33 36 55 20 43 71 121 113 172 27 33 75 141 75 168 0 9
-11 27 -25 40 -18 19 -35 25 -70 25 -54 0 -70 -14 -130 -114 -22 -37 -53 -85
-70 -108 -16 -22 -41 -60 -55 -83 -14 -24 -37 -61 -52 -84 -72 -106 -85 -126
-113 -170 -16 -26 -39 -62 -50 -80 -61 -100 -82 -104 -161 -30 -30 29 -54 60
-54 70 0 10 20 46 45 81 24 35 56 84 70 110 13 26 29 49 35 53 6 4 21 28 34
54 14 26 32 53 41 61 9 8 29 39 45 70 16 31 36 62 45 70 9 8 27 35 40 60 13
25 31 53 41 60 9 8 25 33 36 55 20 43 71 121 112 170 13 17 33 49 43 70 10 22
32 58 50 79 18 22 33 45 33 51 0 7 18 33 41 59 55 62 86 63 152 1z m-6888
-186 c19 -17 44 -51 55 -76 11 -25 33 -61 50 -79 16 -19 30 -41 30 -48 0 -7
15 -33 33 -57 18 -24 39 -59 47 -78 7 -18 28 -51 47 -73 18 -22 33 -46 33 -53
0 -7 18 -37 40 -66 22 -30 40 -59 40 -65 0 -6 15 -31 33 -55 18 -24 39 -58 46
-75 7 -18 26 -44 42 -60 39 -38 37 -67 -8 -110 -49 -44 -67 -49 -116 -33 -36
12 -41 11 -53 -6 -8 -10 -14 -26 -14 -34 -1 -28 -24 -58 -74 -96 -63 -48 -96
-59 -152 -50 -59 8 -140 78 -183 157 -18 32 -36 60 -42 63 -5 4 -23 33 -39 65
-16 32 -34 61 -40 65 -6 4 -23 32 -39 64 -16 31 -37 63 -45 70 -9 8 -25 34
-37 60 -11 25 -28 55 -38 66 -11 11 -30 43 -44 71 -14 27 -33 56 -42 64 -20
17 -45 64 -45 85 0 9 21 38 46 65 38 41 53 50 80 50 30 0 39 -7 78 -60 25 -34
48 -71 52 -83 4 -12 20 -38 35 -59 16 -20 36 -52 44 -70 7 -19 22 -41 31 -49
10 -8 26 -34 37 -59 11 -25 32 -61 47 -80 15 -19 36 -51 46 -71 70 -133 128
-199 173 -199 44 0 81 38 81 84 0 43 -28 110 -69 160 -17 21 -31 44 -31 50 0
6 -18 35 -40 65 -22 29 -40 59 -40 66 0 7 -18 37 -40 66 -22 30 -40 59 -40 65
0 7 -18 36 -40 65 -22 30 -40 59 -40 65 0 6 -16 31 -35 55 -63 79 -57 122 23
164 61 32 74 31 117 -6z m-1026 -319 c10 -5 44 -43 76 -85 68 -89 92 -97 148
-49 38 32 81 31 113 -1 37 -37 30 -82 -16 -113 -59 -39 -61 -87 -6 -146 17
-18 48 -56 68 -82 60 -78 101 -133 126 -167 12 -18 35 -48 52 -67 16 -19 55
-65 86 -102 52 -63 59 -68 97 -68 27 0 50 8 73 25 42 32 69 32 90 0 41 -63
-17 -162 -130 -219 -61 -31 -104 -33 -137 -7 -13 10 -37 25 -54 34 -16 8 -55
45 -85 82 -30 36 -69 83 -86 103 -17 20 -43 55 -58 77 -14 22 -47 65 -71 95
-25 30 -63 78 -84 105 -21 28 -55 67 -75 89 -33 35 -39 38 -75 32 -76 -12
-118 55 -86 139 21 54 16 77 -31 146 -20 30 -41 66 -46 80 -13 37 6 77 44 94
40 17 44 18 67 5z m4566 -290 c39 -5 151 -14 250 -20 188 -12 339 -32 415 -56
25 -8 95 -21 156 -30 61 -8 149 -27 196 -43 47 -16 118 -34 159 -41 41 -7 102
-25 137 -41 35 -15 89 -33 120 -39 31 -5 82 -23 112 -38 30 -16 80 -35 110
-42 30 -7 75 -25 100 -41 25 -15 69 -33 97 -39 29 -6 68 -24 87 -40 20 -15 55
-32 78 -38 24 -6 67 -27 96 -46 30 -19 66 -37 80 -41 15 -4 43 -19 62 -33 19
-15 52 -35 72 -44 21 -9 53 -28 71 -41 17 -13 46 -29 63 -35 17 -5 52 -26 78
-46 26 -20 54 -36 61 -36 8 0 35 -18 60 -40 25 -22 50 -40 56 -40 5 0 26 -15
46 -34 21 -18 57 -43 80 -55 23 -11 45 -25 48 -31 4 -6 25 -23 48 -37 23 -14
53 -37 67 -50 46 -43 109 -97 171 -148 151 -124 466 -435 533 -528 16 -23 57
-74 91 -114 125 -149 211 -262 251 -330 10 -18 22 -33 26 -33 4 0 21 -27 38
-59 16 -33 34 -62 40 -66 6 -4 24 -33 40 -65 16 -32 35 -62 41 -66 6 -3 22
-32 36 -63 14 -31 35 -69 47 -86 13 -16 30 -51 39 -77 8 -26 27 -62 40 -80 14
-18 30 -51 37 -73 7 -22 25 -63 41 -92 15 -28 34 -73 40 -100 6 -26 23 -68 37
-92 13 -24 33 -77 43 -117 10 -40 29 -94 42 -121 13 -26 30 -79 37 -118 7 -38
26 -108 41 -154 16 -46 36 -136 45 -200 9 -63 20 -123 25 -133 33 -62 68 -483
68 -818 0 -199 -21 -575 -39 -680 -6 -36 -17 -85 -25 -110 -8 -25 -21 -94 -30
-155 -9 -60 -29 -148 -45 -195 -16 -47 -34 -114 -40 -150 -7 -36 -25 -95 -41
-131 -16 -37 -34 -91 -40 -120 -6 -30 -24 -76 -39 -104 -16 -27 -33 -70 -40
-95 -6 -25 -24 -67 -39 -95 -16 -27 -34 -68 -41 -90 -7 -22 -26 -61 -42 -87
-16 -26 -34 -63 -39 -82 -5 -19 -21 -48 -34 -64 -13 -16 -32 -48 -41 -73 -10
-24 -30 -60 -45 -79 -14 -19 -34 -52 -43 -74 -9 -21 -29 -54 -46 -72 -16 -19
-30 -40 -30 -47 0 -7 -18 -34 -40 -62 -22 -27 -40 -55 -40 -60 0 -6 -17 -31
-37 -57 -21 -25 -58 -72 -83 -103 -25 -32 -61 -77 -80 -100 -66 -82 -96 -120
-120 -155 -32 -46 -463 -478 -515 -515 -22 -16 -58 -45 -81 -65 -22 -19 -66
-55 -98 -80 -31 -25 -77 -62 -102 -82 -25 -21 -49 -38 -54 -38 -4 0 -26 -15
-48 -32 -23 -18 -60 -45 -84 -61 -62 -39 -109 -72 -144 -101 -17 -14 -53 -35
-80 -46 -27 -12 -58 -30 -69 -40 -11 -10 -42 -28 -69 -40 -27 -11 -61 -31 -77
-44 -16 -14 -45 -30 -66 -36 -21 -7 -56 -26 -78 -42 -22 -15 -58 -33 -80 -39
-22 -6 -55 -22 -73 -36 -19 -14 -60 -33 -92 -43 -33 -10 -73 -28 -89 -40 -17
-11 -63 -30 -102 -41 -40 -11 -90 -31 -113 -44 -23 -13 -71 -31 -109 -39 -37
-9 -89 -27 -116 -40 -26 -14 -79 -30 -117 -37 -38 -6 -100 -24 -139 -39 -38
-15 -108 -33 -155 -39 -47 -6 -134 -25 -195 -41 -72 -20 -165 -35 -270 -45
-88 -8 -189 -22 -225 -30 -208 -47 -900 -47 -1150 0 -41 8 -127 19 -190 25
-160 16 -296 38 -338 56 -20 8 -83 22 -140 30 -57 9 -125 25 -151 36 -25 11
-94 30 -153 43 -59 13 -128 35 -155 48 -26 14 -74 30 -105 37 -32 6 -81 24
-110 39 -29 15 -75 33 -103 40 -27 7 -70 25 -95 41 -25 15 -61 31 -80 35 -39
8 -87 30 -111 51 -8 8 -41 23 -73 34 -32 11 -70 30 -86 44 -16 13 -46 30 -67
37 -21 6 -54 24 -73 39 -19 15 -45 30 -57 34 -12 4 -44 22 -70 40 -27 18 -64
38 -83 46 -19 7 -48 24 -65 37 -35 28 -117 84 -159 110 -16 10 -45 32 -65 49
-20 17 -56 43 -81 58 -68 41 -131 88 -166 121 -17 17 -52 48 -79 70 -26 22
-59 51 -73 65 -15 14 -36 32 -48 40 -94 65 -503 504 -639 685 -27 37 -63 84
-80 105 -66 86 -151 212 -186 275 -12 22 -30 49 -40 61 -18 19 -53 82 -122
218 -16 32 -40 75 -54 94 -13 20 -28 55 -34 78 -6 24 -22 57 -35 75 -13 18
-33 62 -45 98 -12 36 -33 82 -45 101 -13 19 -28 60 -35 90 -6 30 -24 80 -39
110 -16 30 -34 82 -40 115 -7 33 -25 92 -40 130 -15 39 -33 103 -39 143 -6 40
-25 120 -41 178 -18 64 -36 163 -45 253 -8 81 -22 178 -30 217 -27 131 -39
462 -26 707 7 122 18 247 26 277 8 30 21 127 31 215 9 96 26 192 40 240 14 44
31 120 40 169 8 49 26 115 40 147 13 32 33 96 44 143 10 46 28 99 39 117 11
19 28 63 37 99 9 36 29 88 44 115 16 28 33 70 40 95 6 25 24 63 39 85 16 22
36 65 44 96 9 30 26 64 37 74 11 10 29 43 41 74 11 31 29 65 39 76 10 11 29
45 43 76 14 31 30 60 36 63 6 4 24 33 40 65 16 31 37 63 46 71 9 8 27 35 40
60 13 25 31 52 40 60 9 7 23 27 32 44 9 17 31 49 49 71 66 79 110 133 149 185
116 153 390 438 586 609 213 186 250 216 284 234 17 8 39 25 50 37 11 12 36
30 56 40 19 10 42 26 49 35 8 9 34 27 59 40 25 12 55 33 66 45 11 12 41 33 67
46 26 13 50 29 53 35 4 6 36 24 70 39 34 15 66 33 70 40 4 7 36 25 70 40 34
15 66 33 70 40 4 7 37 25 74 42 36 16 73 36 82 44 8 7 41 23 73 34 31 10 70
29 86 40 16 11 53 28 82 36 29 9 76 29 103 44 28 16 73 34 100 40 28 6 75 24
105 39 30 16 82 34 115 40 33 7 89 25 125 41 36 15 98 33 139 40 41 6 103 22
137 36 35 14 119 34 188 44 69 11 159 28 200 39 98 26 190 37 406 51 96 6 204
15 240 21 124 19 455 18 605 -1z m3908 -39 c37 -14 142 -96 176 -138 41 -49
56 -116 42 -185 -16 -77 -35 -103 -266 -367 -280 -321 -321 -366 -339 -369
-31 -6 -95 45 -113 90 -14 36 -25 45 -89 74 -82 38 -150 106 -160 160 -7 41
12 128 33 145 8 7 23 30 34 50 27 54 140 136 197 145 79 12 215 -1 276 -27 56
-23 56 -23 100 -2 47 23 146 142 146 175 0 9 -14 33 -31 53 -39 44 -84 48
-120 9 -75 -81 -179 -68 -179 21 0 20 6 48 14 63 14 26 85 90 116 104 23 10
135 9 163 -1z m-8661 -304 c44 -14 103 -70 308 -286 85 -90 189 -198 230 -240
91 -92 110 -118 110 -152 0 -39 -45 -79 -89 -79 -50 0 -58 -8 -81 -75 -22 -63
-56 -107 -105 -133 -38 -20 -148 -20 -195 1 -41 18 -113 86 -155 147 -27 39
-30 53 -34 133 -4 108 12 198 45 246 16 24 24 50 24 77 0 39 -6 48 -74 118
-56 57 -80 76 -101 76 -41 0 -63 -17 -76 -59 -10 -35 -9 -45 15 -96 35 -76 35
-127 0 -154 -56 -44 -111 -19 -168 76 -51 86 -52 133 -6 223 76 150 215 220
352 177z m9290 -274 c64 -66 68 -86 26 -125 -56 -52 -329 -291 -408 -357 -41
-34 -103 -90 -137 -123 -55 -53 -63 -65 -63 -98 0 -48 24 -69 87 -77 50 -5 50
-5 154 86 57 50 126 111 152 134 27 23 61 54 75 68 15 15 74 68 132 119 58 51
115 104 127 117 31 33 47 29 103 -23 44 -42 50 -51 50 -88 0 -41 -2 -44 -142
-166 -78 -69 -173 -152 -212 -185 -96 -80 -324 -285 -360 -324 -17 -17 -39
-31 -51 -31 -11 0 -40 20 -64 44 -42 43 -43 46 -37 89 8 52 8 53 -77 76 -58
15 -65 21 -110 81 -45 60 -49 69 -45 111 7 69 64 155 156 234 161 139 186 161
216 191 54 53 300 270 321 282 36 21 60 13 107 -35z m-10013 -175 c71 -62 157
-135 191 -163 94 -74 161 -130 278 -232 103 -88 200 -168 291 -240 90 -70 101
-81 101 -97 0 -24 -64 -100 -93 -110 -37 -13 -122 5 -201 43 -33 17 -85 35
-114 42 -29 6 -86 26 -126 44 -39 19 -94 39 -121 46 -28 7 -71 23 -97 36 -51
27 -88 24 -88 -6 0 -11 15 -25 40 -36 23 -10 48 -31 57 -45 9 -15 30 -36 47
-46 30 -18 112 -81 153 -120 12 -10 56 -48 99 -84 159 -132 162 -141 84 -214
-27 -25 -55 -46 -63 -46 -8 0 -41 25 -73 56 -33 31 -75 68 -94 83 -19 14 -47
37 -61 51 -14 14 -54 48 -89 75 -87 69 -148 119 -195 160 -91 79 -238 203
-290 245 -124 100 -145 116 -169 133 -39 27 -34 62 18 113 31 32 51 44 72 44
38 0 109 -22 170 -53 27 -13 79 -31 116 -40 37 -9 82 -26 100 -36 18 -11 70
-31 114 -45 45 -14 97 -34 115 -45 41 -25 97 -28 106 -6 6 18 -23 55 -44 55
-8 0 -35 20 -61 45 -25 25 -50 45 -54 45 -4 0 -68 52 -140 115 -73 63 -154
133 -180 156 -47 40 -61 76 -40 104 15 21 92 85 102 85 6 0 68 -51 139 -112z
m10561 -545 c61 -39 120 -97 140 -138 12 -24 24 -74 27 -113 5 -60 2 -77 -19
-124 -23 -49 -31 -57 -92 -86 -80 -38 -99 -40 -131 -7 -41 41 -33 73 42 158
35 39 43 80 22 118 -24 45 -77 40 -126 -13 -33 -35 -100 -203 -113 -282 -15
-98 -87 -237 -154 -298 -62 -57 -108 -72 -199 -65 -65 6 -70 8 -128 60 -61 54
-92 108 -122 210 -10 34 -8 43 25 111 31 62 44 78 84 100 66 37 87 40 128 21
62 -30 60 -76 -5 -151 -48 -55 -55 -81 -35 -128 17 -41 56 -62 85 -46 34 18
78 78 85 115 4 21 20 70 35 109 16 39 34 100 40 136 7 36 25 85 40 110 16 25
38 63 50 85 25 44 131 126 178 137 40 9 113 -1 143 -19z m-620 -7229 c73 -48
132 -93 273 -207 81 -65 97 -82 97 -106 0 -37 -31 -65 -63 -57 -14 3 -45 20
-70 38 -70 50 -238 179 -275 210 -56 48 -144 33 -127 -22 4 -11 30 -38 58 -59
29 -22 84 -64 122 -93 39 -30 98 -75 133 -102 50 -39 62 -53 62 -76 0 -41 -26
-63 -64 -56 -31 6 -54 21 -157 99 -193 146 -317 247 -324 265 -10 27 4 47 55
77 32 19 62 47 83 79 50 79 91 81 197 10z m-361 -316 c70 -40 161 -125 161
-150 0 -10 -27 -44 -60 -75 -33 -31 -60 -64 -60 -75 0 -38 101 -105 140 -93
17 5 20 15 20 60 0 60 16 85 56 85 33 0 74 -42 76 -77 3 -64 -3 -78 -60 -131
-57 -53 -57 -53 -118 -50 -54 3 -70 10 -130 50 -94 64 -227 193 -254 247 -26
53 -24 129 5 161 27 30 117 80 144 80 13 0 49 -14 80 -32z m-8278 -31 c14 -7
47 -36 73 -65 62 -70 63 -109 6 -181 -22 -27 -49 -55 -59 -61 -31 -16 -76 -12
-95 9 -19 21 -17 29 30 98 28 42 30 65 8 87 -29 30 -65 18 -164 -54 -94 -69
-188 -144 -262 -209 -65 -57 -42 -129 37 -111 62 14 105 49 130 105 37 84 79
83 139 -3 34 -50 29 -75 -22 -102 -20 -11 -64 -43 -97 -70 -124 -104 -147
-110 -197 -54 -18 20 -50 43 -71 51 -43 18 -87 82 -87 129 0 47 58 133 130
191 220 181 286 229 330 241 49 14 140 13 171 -1z m7746 -154 c30 -23 47 -28
102 -29 73 -2 68 7 55 -84 -4 -33 1 -41 125 -168 131 -134 131 -134 186 -127
95 12 115 -37 45 -107 -37 -38 -43 -40 -84 -36 -55 7 -123 58 -256 193 -63 64
-114 106 -152 126 -56 28 -58 31 -58 69 0 30 -7 46 -30 70 -21 21 -30 41 -30
63 0 62 39 74 97 30z m-269 -99 c17 -11 22 -25 22 -58 0 -49 -13 -66 -50 -66
-30 0 -63 31 -79 73 -9 23 -7 31 9 47 24 24 67 26 98 4z m-145 -142 c20 -33
20 -34 0 -60 -41 -55 -135 -32 -135 33 0 39 35 67 81 63 28 -2 39 -10 54 -36z
m-7111 -23 c18 -22 53 -51 78 -62 43 -21 45 -24 44 -61 -1 -33 -9 -47 -42 -78
-63 -58 -89 -51 -113 30 -8 28 -18 42 -29 42 -9 0 -83 -60 -163 -134 -159
-145 -197 -176 -220 -176 -26 0 -47 29 -47 64 0 29 18 50 177 202 97 93 190
179 207 192 44 33 70 28 108 -19z m7432 -37 c67 -45 349 -356 344 -380 -2 -9
-19 -26 -38 -39 -19 -12 -53 -40 -75 -61 -61 -60 -100 -77 -145 -63 -54 16
-125 83 -145 136 -21 54 -14 87 26 132 55 64 31 160 -46 179 -44 11 -66 -19
-63 -84 4 -64 -13 -83 -59 -66 -20 7 -33 23 -47 57 -18 44 -19 51 -6 90 10 27
27 49 50 64 19 12 50 34 69 48 46 34 69 32 135 -13z m-6986 -8 c15 -10 22 -25
22 -49 0 -45 -35 -70 -86 -62 -47 8 -64 23 -64 57 0 55 79 88 128 54z m6453
-120 c35 -38 72 -54 123 -54 62 0 77 -26 41 -68 -32 -38 -32 -65 2 -96 15 -14
59 -67 98 -117 91 -119 111 -134 183 -134 54 0 57 -2 60 -25 2 -20 -8 -34 -49
-68 -53 -43 -84 -51 -122 -30 -48 25 -115 91 -167 164 -88 123 -161 204 -202
225 -39 20 -39 20 -32 65 5 37 3 49 -13 67 -28 30 -35 55 -23 78 16 29 71 25
101 -7z m-6607 -50 c36 -35 21 -59 -136 -231 -84 -91 -164 -178 -176 -194 -48
-59 -118 -74 -142 -29 -24 44 -5 69 253 339 101 106 123 121 179 130 4 1 14
-6 22 -15z m6344 -10 c27 -19 28 -49 2 -91 -26 -43 -61 -44 -101 -4 -40 41
-38 74 6 99 28 16 67 15 93 -4z m-219 -143 c10 -6 50 -63 90 -128 40 -65 95
-152 121 -193 27 -41 67 -104 90 -140 22 -36 52 -80 65 -99 53 -73 7 -160 -64
-121 -10 5 -35 35 -56 67 -99 150 -231 357 -265 417 -14 23 -40 60 -57 80 -37
41 -42 79 -16 108 17 19 63 24 92 9z m-5843 -30 c18 -11 44 -36 59 -55 35 -47
36 -95 2 -162 -27 -53 -106 -134 -131 -134 -9 0 -44 18 -78 40 -35 22 -71 40
-80 40 -44 0 -116 -98 -103 -140 9 -28 27 -30 79 -8 82 36 122 -5 76 -79 -23
-38 -51 -47 -126 -41 -45 4 -61 10 -90 39 -68 65 -77 104 -44 191 29 76 179
250 270 311 35 24 126 23 166 -2z m6158 -1 c14 -5 38 -29 53 -52 15 -24 76
-112 136 -195 59 -84 115 -169 123 -189 19 -45 11 -82 -20 -94 -53 -20 -60
-12 -215 215 -41 61 -94 136 -118 169 -54 73 -59 131 -13 149 22 8 26 8 54 -3z
m-5759 -224 c39 -17 95 -88 95 -123 0 -50 -51 -113 -90 -113 -9 0 -25 6 -35
14 -17 12 -17 17 -5 60 14 53 4 76 -35 76 -26 0 -87 -67 -124 -135 -12 -22
-33 -55 -46 -74 -30 -40 -50 -103 -42 -125 8 -20 44 -20 77 -1 14 8 40 14 57
15 27 0 34 -5 39 -26 8 -31 -16 -68 -66 -101 -24 -17 -47 -23 -88 -23 -53 0
-57 2 -109 53 -47 48 -53 59 -53 95 0 93 176 356 275 410 28 16 110 15 150 -2z
m425 -6 c26 -26 26 -29 -10 -81 -16 -24 -30 -53 -30 -64 0 -36 27 -63 72 -70
23 -4 52 -18 66 -32 22 -22 24 -31 19 -79 -4 -34 -17 -74 -37 -109 -48 -84
-140 -269 -140 -281 0 -7 -13 -26 -29 -43 -46 -49 -121 -38 -121 17 0 27 99
234 154 320 15 24 26 56 26 75 0 61 -54 84 -92 41 -7 -9 -56 -100 -108 -202
-96 -187 -96 -187 -134 -190 -41 -4 -76 18 -76 48 0 10 25 66 57 126 31 60 67
132 80 159 13 28 31 64 40 80 8 17 45 86 81 155 35 69 69 131 74 138 17 20 85
15 108 -8z m4391 10 c46 -25 -3 -120 -62 -120 -31 0 -69 40 -69 73 0 49 76 76
131 47z m480 -52 c25 -14 56 -46 83 -88 58 -88 112 -181 120 -205 3 -11 22
-45 41 -75 39 -61 46 -113 18 -128 -10 -5 -38 -12 -63 -16 -33 -5 -53 -16 -76
-41 -27 -30 -38 -35 -78 -35 -54 0 -101 35 -143 107 -21 36 -25 53 -21 93 4
42 12 57 52 99 41 45 46 55 46 97 0 51 -28 94 -60 94 -26 0 -57 -41 -63 -84
-4 -22 -11 -44 -16 -49 -17 -17 -61 3 -81 36 -43 69 -12 132 90 183 78 39 100
41 151 12z m-4414 -87 c40 -25 50 -54 29 -86 -33 -50 -146 -20 -146 37 0 24
44 68 67 68 10 0 32 -9 50 -19z m4002 -51 c10 -5 31 -40 46 -77 14 -37 36 -80
47 -95 11 -16 30 -56 43 -89 13 -33 42 -94 65 -136 22 -41 40 -85 40 -97 0
-33 -43 -70 -74 -62 -28 7 -98 105 -116 163 -7 21 -25 61 -40 88 -15 28 -35
71 -45 97 -10 26 -24 53 -31 59 -8 6 -18 28 -24 49 -21 78 28 133 89 100z
m-218 -60 c6 0 17 -17 26 -37 13 -30 17 -79 19 -237 3 -230 6 -238 72 -218 78
24 126 12 120 -29 -2 -19 -21 -33 -88 -66 -109 -54 -156 -62 -193 -33 -27 21
-27 21 -27 230 0 238 -3 247 -70 236 -46 -7 -106 9 -115 32 -9 25 34 58 94 71
27 6 66 22 87 36 21 14 44 23 52 20 7 -3 18 -5 23 -5z m-3876 -82 c50 -23 44
-59 -50 -278 -18 -41 -38 -93 -45 -115 -24 -76 -70 -155 -95 -165 -33 -13 -72
3 -86 34 -10 21 -4 40 39 138 27 62 55 131 62 153 7 22 22 58 33 80 11 22 27
62 37 90 11 32 25 54 41 62 30 16 32 16 64 1z m1164 -71 c10 -9 12 -28 6 -79
-6 -67 -6 -68 20 -78 14 -6 43 -10 64 -10 44 0 79 -24 112 -76 23 -39 23 -31
-1 -254 -5 -47 -12 -122 -16 -168 -8 -100 -24 -126 -77 -126 -60 0 -69 15 -62
108 4 45 16 136 27 204 14 85 17 134 11 159 -25 106 -110 39 -124 -97 -4 -36
-12 -116 -18 -179 -14 -140 -28 -171 -76 -171 -56 0 -69 31 -61 138 4 48 12
109 17 137 14 68 28 196 38 342 9 125 16 147 56 164 23 9 63 3 84 -14z m2319
-1 c94 -50 148 -177 107 -255 -14 -28 -75 -61 -112 -61 -27 0 -53 -31 -53 -62
0 -38 48 -88 84 -88 29 0 52 21 78 68 20 37 40 40 68 12 26 -26 26 -85 1 -126
-37 -62 -169 -83 -251 -41 -39 19 -50 32 -82 97 -46 95 -92 277 -83 331 9 52
43 100 85 121 42 22 121 23 158 4z m-3155 -10 c45 -19 117 -99 117 -131 0 -28
-16 -66 -34 -77 -19 -13 -73 -9 -86 7 -6 8 -14 32 -17 54 -4 29 -11 42 -26 47
-44 14 -64 -71 -27 -118 36 -47 90 -184 90 -231 0 -86 -83 -161 -170 -154 -54
4 -157 68 -166 102 -10 41 0 78 28 98 40 29 74 17 100 -38 26 -54 47 -64 70
-35 26 32 22 65 -13 105 -35 40 -79 164 -79 225 0 69 90 160 158 160 12 0 37
-6 55 -14z m2176 -30 c17 -9 45 -35 61 -58 49 -67 36 -148 -24 -148 -29 0 -48
16 -80 68 -29 47 -64 56 -98 25 -39 -35 -15 -89 69 -155 96 -76 182 -164 198
-202 18 -43 20 -135 3 -171 -14 -31 -132 -95 -175 -95 -80 0 -144 40 -183 113
-27 51 -22 88 15 113 35 23 60 10 97 -52 45 -76 94 -85 125 -24 23 47 1 78
-175 238 -112 103 -128 133 -119 225 5 55 20 74 93 118 42 25 57 29 105 25 31
-2 70 -11 88 -20z m507 -55 c72 -44 93 -88 149 -319 29 -121 30 -143 10 -185
-17 -36 -100 -97 -131 -97 -12 0 -29 -9 -39 -20 -16 -17 -16 -25 -5 -64 16
-59 8 -90 -29 -106 -64 -26 -91 5 -116 130 -9 47 -27 123 -40 170 -13 47 -29
118 -35 159 -6 40 -19 100 -30 132 -23 66 -26 129 -8 147 7 7 34 12 61 12 41
0 55 5 84 30 40 36 83 39 129 11z m-2220 -26 c71 -37 94 -67 94 -120 0 -35 -5
-48 -26 -64 -34 -27 -63 -15 -92 37 -27 48 -39 51 -71 21 -33 -31 -47 -70 -66
-191 -15 -89 -16 -112 -5 -138 15 -36 53 -41 70 -10 34 64 110 61 110 -4 0
-65 -73 -126 -150 -126 -55 0 -89 19 -134 77 -38 48 -38 48 -32 133 6 92 46
256 74 305 24 39 118 105 152 105 15 0 49 -11 76 -25z m992 -91 c29 -14 63
-40 77 -58 44 -57 51 -149 17 -212 -16 -31 -73 -54 -130 -54 -43 0 -54 -4 -71
-26 -28 -35 -28 -97 -1 -124 28 -28 37 -26 86 20 48 44 59 47 92 24 34 -24 28
-58 -20 -108 -48 -49 -96 -63 -169 -51 -52 9 -81 36 -119 109 -28 55 -30 65
-30 172 0 117 18 202 56 260 17 26 107 73 140 74 11 0 44 -12 72 -26z M7291
14044 c-18 -23 -21 -41 -21 -129 0 -84 3 -107 18 -125 23 -28 87 -32 125 -7
26 16 27 22 27 97 0 89 -10 123 -48 163 -34 35 -74 36 -101 1z M9933 13766
c-41 -34 -82 -116 -93 -182 -5 -31 -23 -84 -39 -117 -16 -34 -35 -91 -41 -126
-6 -36 -21 -83 -32 -105 -28 -55 -29 -117 -2 -153 29 -39 68 -51 102 -32 35
19 80 103 93 173 5 31 23 84 39 118 16 35 34 91 40 126 6 34 24 90 40 125 47
97 35 163 -32 186 -42 15 -42 15 -75 -13z M10752 13443 c-31 -27 -102 -125
-108 -150 -11 -41 4 -72 46 -93 56 -29 83 -26 116 13 37 43 74 125 74 163 0
46 -34 84 -75 84 -18 0 -42 -8 -53 -17z M7760 12399 c-230 -7 -387 -20 -408
-33 -14 -9 -159 -34 -267 -47 -49 -6 -130 -23 -180 -39 -49 -16 -127 -35 -171
-44 -45 -8 -100 -24 -123 -35 -22 -12 -79 -30 -127 -41 -47 -11 -105 -31 -127
-44 -23 -13 -67 -29 -97 -35 -30 -7 -75 -25 -100 -41 -25 -15 -65 -34 -90 -40
-25 -7 -65 -25 -89 -41 -25 -16 -63 -34 -85 -40 -23 -6 -62 -24 -87 -40 -25
-16 -61 -34 -80 -40 -19 -7 -45 -22 -59 -35 -14 -12 -47 -32 -75 -44 -27 -12
-59 -30 -70 -40 -11 -10 -40 -26 -65 -36 -25 -9 -56 -27 -70 -39 -14 -12 -43
-32 -65 -44 -22 -13 -49 -32 -60 -43 -11 -11 -40 -33 -65 -49 -107 -69 -177
-122 -290 -219 -145 -124 -192 -164 -215 -180 -30 -21 -345 -357 -375 -400
-22 -31 -76 -97 -189 -230 -21 -25 -46 -61 -56 -80 -10 -19 -31 -51 -46 -70
-16 -19 -29 -39 -29 -45 0 -6 -13 -26 -29 -45 -15 -19 -37 -53 -49 -75 -11
-22 -34 -53 -51 -69 -32 -31 -40 -63 -19 -84 9 -9 957 -12 4204 -12 4106 0
4192 0 4215 19 24 19 24 19 -10 68 -19 26 -44 59 -56 73 -13 14 -33 45 -45 70
-12 25 -30 54 -39 65 -10 11 -30 40 -45 65 -14 25 -47 70 -71 100 -25 30 -59
75 -77 100 -17 25 -45 61 -62 81 -17 20 -49 58 -71 84 -72 86 -449 458 -556
548 -153 129 -189 156 -229 177 -20 10 -42 25 -49 34 -7 8 -33 27 -57 41 -24
14 -44 29 -44 34 0 4 -22 20 -50 35 -27 15 -62 38 -78 50 -15 13 -45 31 -67
40 -22 9 -49 25 -60 36 -11 10 -45 29 -76 43 -31 14 -60 30 -64 37 -4 6 -40
26 -80 45 -40 18 -75 38 -79 44 -4 6 -36 20 -72 31 -36 11 -77 29 -91 40 -15
11 -50 27 -78 36 -29 8 -72 28 -97 44 -24 16 -66 34 -93 40 -28 6 -80 24 -116
40 -36 16 -89 34 -117 40 -29 5 -83 23 -120 39 -37 16 -101 34 -142 41 -41 7
-113 25 -160 40 -47 15 -114 31 -150 35 -90 9 -170 22 -270 45 -170 38 -582
54 -1040 39z M3704 9745 c-12 -8 -27 -29 -34 -47 -8 -18 -22 -44 -32 -57 -10
-13 -26 -49 -34 -80 -9 -31 -30 -82 -45 -113 -16 -32 -34 -81 -40 -110 -6 -29
-22 -75 -36 -101 -13 -27 -33 -89 -43 -138 -11 -50 -30 -120 -44 -157 -13 -37
-29 -110 -36 -162 -6 -52 -22 -141 -35 -197 -37 -158 -46 -290 -46 -668 0
-376 10 -545 40 -659 10 -39 24 -105 30 -146 7 -41 16 -103 22 -137 5 -34 18
-82 28 -106 11 -24 26 -82 35 -128 9 -46 28 -109 41 -139 14 -30 33 -77 43
-105 21 -59 36 -64 95 -36 43 21 43 21 4422 21 3387 0 4398 -3 4463 -12 84
-12 84 -12 107 14 13 15 27 52 34 89 7 35 26 94 42 131 17 39 34 102 40 150 6
46 22 112 35 148 23 61 52 249 73 480 5 47 14 114 20 150 15 79 10 511 -7 615
-6 39 -18 131 -27 205 -32 269 -38 306 -61 374 -13 38 -26 92 -30 120 -6 57
-32 156 -44 171 -10 13 -37 101 -44 147 -4 20 -18 57 -32 83 -13 26 -33 79
-44 118 -11 39 -31 87 -44 106 -14 20 -30 57 -36 83 -16 64 -38 82 -87 73 -21
-5 -1957 -10 -4302 -12 -4167 -3 -4264 -3 -4295 16 -47 28 -70 32 -92 16z
m1794 -959 c39 -13 84 -155 102 -322 5 -50 23 -143 39 -207 17 -63 35 -154 41
-200 6 -47 26 -154 44 -239 19 -84 37 -172 41 -196 7 -45 28 -63 47 -44 7 7
17 72 24 146 10 104 19 149 39 198 15 35 35 101 46 146 10 46 28 99 39 117 11
18 29 71 39 117 10 45 28 102 40 126 12 24 30 80 40 125 24 105 77 218 111
233 17 8 69 10 162 5 174 -8 181 -13 209 -150 10 -50 29 -112 42 -138 13 -27
30 -79 37 -118 7 -38 24 -95 37 -125 14 -30 33 -94 43 -142 11 -48 28 -105 39
-127 24 -46 36 -97 50 -207 15 -120 38 -159 71 -119 7 8 18 43 25 77 7 35 20
95 29 133 8 39 20 113 26 165 10 91 23 158 55 280 8 30 19 105 25 165 18 176
43 270 80 292 13 9 76 14 196 15 165 2 177 1 191 -17 20 -27 11 -98 -26 -205
-16 -47 -35 -122 -41 -168 -6 -45 -22 -112 -36 -147 -13 -36 -31 -109 -40
-162 -8 -53 -26 -128 -40 -166 -13 -39 -31 -111 -40 -161 -8 -50 -28 -134 -44
-186 -16 -52 -34 -126 -40 -165 -15 -96 -69 -265 -93 -292 -20 -22 -26 -23
-224 -23 -229 0 -235 2 -249 77 -3 21 -19 67 -34 103 -16 36 -34 96 -41 134
-6 38 -24 96 -39 130 -15 34 -33 93 -40 131 -7 39 -25 99 -41 135 -17 41 -32
100 -39 155 -21 172 -35 211 -68 201 -32 -11 -67 -100 -85 -218 -11 -70 -26
-126 -43 -159 -14 -28 -32 -84 -40 -123 -8 -39 -30 -110 -49 -157 -19 -48 -35
-97 -35 -110 -1 -13 -10 -49 -21 -79 -11 -30 -31 -86 -45 -125 -14 -38 -32
-76 -41 -82 -12 -10 -73 -13 -219 -13 -203 0 -203 0 -222 25 -11 14 -26 49
-33 78 -7 28 -19 68 -27 87 -8 19 -23 80 -33 136 -10 56 -29 133 -42 171 -14
38 -30 103 -36 144 -7 41 -25 115 -41 164 -16 50 -36 128 -44 175 -8 47 -25
117 -39 156 -14 39 -30 104 -36 145 -7 41 -26 117 -43 169 -39 120 -45 218
-12 235 22 11 317 12 352 1z m3026 -6 c93 -6 192 -17 220 -25 28 -8 91 -21
141 -30 62 -11 102 -24 130 -42 22 -15 52 -34 67 -43 42 -24 105 -102 117
-145 13 -49 14 -218 2 -262 -11 -38 -103 -146 -138 -162 -41 -19 -133 -93
-133 -107 0 -18 26 -30 85 -39 53 -7 105 -30 105 -44 0 -5 15 -19 33 -30 19
-11 39 -33 46 -48 7 -16 24 -46 39 -67 26 -38 27 -45 27 -170 0 -131 0 -131
-43 -208 -24 -43 -48 -78 -52 -78 -5 0 -22 -14 -39 -30 -18 -19 -73 -48 -143
-76 -105 -42 -124 -46 -268 -60 -99 -9 -280 -14 -502 -14 -347 0 -347 0 -362
22 -14 20 -16 115 -16 826 0 803 0 803 23 825 22 22 26 22 257 19 129 -1 311
-7 404 -12z m1547 -6 c18 -16 19 -37 19 -336 0 -305 1 -319 20 -338 19 -19 33
-20 248 -20 176 0 232 3 247 14 17 12 18 32 17 317 0 177 3 317 9 336 7 21 19
34 37 40 15 5 104 6 199 3 148 -4 175 -8 190 -23 17 -17 18 -65 20 -813 2
-796 2 -796 -26 -825 -29 -29 -29 -29 -209 -29 -169 0 -180 1 -198 21 -18 20
-19 42 -20 362 -1 340 -1 341 -24 359 -25 20 -31 21 -285 20 -249 -2 -227 38
-224 -390 2 -336 2 -336 -21 -354 -20 -16 -43 -18 -201 -18 -170 0 -179 1
-203 23 -16 13 -27 34 -28 52 -1 17 -1 378 0 803 2 762 2 772 22 790 17 14 48
18 173 23 184 7 214 5 238 -17z M8345 8581 c-52 -22 -54 -32 -55 -256 -1 -210
-1 -210 25 -232 22 -19 38 -23 93 -23 37 0 100 5 141 10 61 8 81 16 122 47 66
50 84 90 83 183 0 92 -16 141 -60 190 -43 48 -64 56 -197 75 -120 17 -124 17
-152 6z M8345 7861 c-53 -22 -54 -28 -56 -295 -2 -311 -12 -292 159 -288 142
3 172 11 248 60 98 64 98 66 102 205 2 70 -1 137 -7 157 -13 43 -91 128 -123
134 -167 33 -284 43 -323 27z M8050 6190 c-2480 -3 -4361 -9 -4369 -14 -24
-16 -8 -99 31 -159 19 -29 39 -64 43 -77 4 -14 24 -54 45 -90 21 -36 44 -77
51 -91 22 -40 75 -121 102 -154 13 -16 36 -52 51 -80 27 -50 72 -114 153 -217
23 -29 75 -96 116 -148 64 -83 140 -166 341 -373 82 -84 383 -345 451 -391 22
-15 74 -51 115 -81 41 -30 89 -62 105 -71 17 -9 45 -30 63 -45 18 -16 49 -36
68 -44 20 -8 49 -26 65 -39 16 -13 45 -30 66 -37 21 -6 52 -24 70 -39 17 -16
49 -33 70 -40 21 -7 54 -25 73 -40 19 -16 55 -33 80 -40 25 -6 65 -25 89 -41
24 -15 66 -35 95 -43 28 -9 67 -27 88 -40 20 -14 58 -30 85 -36 26 -6 67 -22
90 -36 23 -13 77 -32 120 -43 44 -10 99 -29 123 -41 24 -12 84 -30 134 -40 50
-10 112 -28 137 -39 25 -11 91 -27 145 -35 116 -18 229 -41 264 -54 24 -9 94
-18 350 -43 211 -20 684 -23 911 -5 112 9 239 19 282 22 43 3 131 18 195 34
65 15 158 33 207 40 50 7 119 23 155 37 36 13 106 32 156 43 50 10 113 29 140
43 27 13 76 30 109 37 33 6 78 22 100 35 22 12 72 32 111 44 39 12 83 31 98
42 15 12 54 29 88 39 33 11 77 30 97 44 20 13 54 29 77 35 22 6 60 25 84 42
23 17 57 36 74 42 17 6 47 23 66 38 19 15 51 32 71 38 20 7 45 21 55 33 11 11
44 32 74 45 30 14 66 35 80 47 14 13 42 33 63 45 20 13 37 27 37 32 0 5 22 20
48 33 27 13 54 32 62 41 7 9 30 25 49 35 20 10 52 33 73 51 20 19 58 53 85 76
26 23 102 89 168 146 66 58 179 167 251 243 126 134 157 169 254 290 25 30 61
75 80 98 57 69 168 232 204 298 14 26 30 49 36 53 6 3 20 25 31 48 12 23 34
58 50 78 15 19 31 48 35 63 3 15 21 49 39 75 18 26 38 64 43 83 5 19 24 54 41
78 44 61 38 112 -14 121 -11 2 -1980 2 -4375 -1z M11888 12160 c-15 -4 -47
-24 -72 -45 -100 -81 -93 -195 11 -195 36 0 49 5 66 26 12 15 50 56 85 92 34
37 62 75 62 85 0 35 -87 57 -152 37z M3766 11908 c-19 -27 -20 -58 -5 -129 9
-42 21 -61 66 -105 66 -66 99 -71 144 -23 47 50 40 78 -40 162 -37 40 -73 83
-80 95 -16 30 -64 30 -85 0z M12352 3768 c-7 -7 -12 -24 -12 -39 0 -60 108
-97 132 -45 14 33 6 52 -34 76 -37 23 -68 26 -86 8z M11900 3075 c-14 -17 -1
-67 27 -97 32 -36 93 -13 93 36 0 52 -90 98 -120 61z M4850 2901 c-30 -28 -41
-46 -38 -63 3 -20 9 -23 49 -26 41 -3 50 0 68 24 15 20 21 39 19 63 -3 31 -7
36 -29 39 -20 2 -38 -7 -69 -37z M10694 2395 c-14 -21 -14 -30 -4 -54 17 -43
44 -63 77 -59 24 3 28 8 31 40 5 54 -21 98 -58 98 -20 0 -35 -8 -46 -25z
M9548 2299 c-23 -13 -24 -76 -2 -107 27 -38 114 -22 114 21 0 24 -41 78 -66
87 -30 12 -25 12 -46 -1z M9054 2185 c-10 -38 2 -117 34 -237 36 -136 66 -173
105 -130 28 31 30 68 7 169 -26 119 -45 171 -73 201 -29 31 -65 29 -73 -3z
M7850 2073 c-38 -48 -15 -133 36 -133 52 0 74 97 31 138 -30 29 -41 28 -67 -5z"/>
</g>
</svg>