<svg xmlns="http://www.w3.org/2000/svg" width="20" height="21" fill="none"><path fill="#F07028" d="M18.935 9.25a1.752 1.752 0 0 0-1.25-.52c-1.79 0-3.555.29-5.25.864l-.79.265c-.046.016-.074-.05-.03-.07l.75-.371a16.325 16.325 0 0 0 4.324-3.102c.331-.332.515-.765.519-1.226a1.783 1.783 0 0 0-1.746-1.793c-.48-.008-.934.18-1.274.52a16.325 16.325 0 0 0-3.101 4.324l-.371.75c-.024.043-.086.015-.07-.032l.265-.789c.574-1.695.863-3.46.863-5.25 0-.472-.183-.918-.52-1.25a1.752 1.752 0 0 0-1.25-.52c-.472 0-.917.184-1.25.52a1.757 1.757 0 0 0-.519 1.25c0 1.79.29 3.555.864 5.25l.265.79c.016.046-.05.074-.07.03l-.371-.75A16.324 16.324 0 0 0 5.82 3.817a1.744 1.744 0 0 0-1.226-.52 1.778 1.778 0 0 0-1.793 1.747c-.008.48.18.934.52 1.273a16.324 16.324 0 0 0 4.324 3.102l.75.371a.039.039 0 0 1-.032.07l-.789-.265a16.327 16.327 0 0 0-5.25-.864c-.472 0-.918.184-1.25.52a1.77 1.77 0 0 0 1.25 3.023c1.79 0 3.555-.289 5.25-.863l.79-.265c.046-.016.073.05.03.07l-.75.37a16.325 16.325 0 0 0-4.324 3.102 1.744 1.744 0 0 0-.52 1.227 1.783 1.783 0 0 0 1.747 1.793c.48.008.933-.18 1.273-.52a16.323 16.323 0 0 0 3.102-4.324l.371-.75c.023-.043.086-.015.07.032l-.265.789a16.327 16.327 0 0 0-.864 5.25c0 .472.184.918.52 1.25.336.335.777.52 1.25.52.472 0 .918-.184 1.25-.52.336-.336.52-.778.52-1.25 0-1.79-.29-3.555-.864-5.25l-.265-.79c-.016-.046.05-.074.07-.03l.37.75a16.325 16.325 0 0 0 3.102 4.323c.332.332.766.516 1.227.52a1.783 1.783 0 0 0 1.793-1.746c.008-.48-.18-.934-.52-1.274a16.326 16.326 0 0 0-4.324-3.101l-.75-.371c-.043-.024-.015-.086.031-.07l.79.265c1.695.574 3.46.863 5.25.863.472 0 .918-.183 1.25-.52a1.77 1.77 0 0 0 0-2.503Z"/></svg>
